<?xml version="1.0" encoding="utf-8"?>
<!-- Generator: Adobe Illustrator 19.0.0, SVG Export Plug-In . SVG Version: 6.00 Build 0)  -->
<svg version="1.1" id="Layer_1" xmlns="http://www.w3.org/2000/svg" xmlns:xlink="http://www.w3.org/1999/xlink" x="0px" y="0px"
	 viewBox="0 0 200 50" style="enable-background:new 0 0 200 50;" xml:space="preserve">
<style type="text/css">
	.st0{fill:#EC1C24;}
	.st1{fill:#6D6E70;}
	.st2{fill-rule:evenodd;clip-rule:evenodd;fill:#2E3191;}
	.st3{fill-rule:evenodd;clip-rule:evenodd;fill:#00ADEE;}
</style>
<g id="XMLID_67_">
	<path id="XMLID_109_" class="st0" d="M198.6,19.3c-0.1-0.5-0.4-0.9-0.7-1.2c-0.3-0.3-0.7-0.4-1.1-0.4c-0.3,0-0.5,0.1-0.7,0.2
		c-0.2,0.2-0.3,0.4-0.3,0.6c0,0.2,0.1,0.4,0.3,0.6c0.2,0.2,0.5,0.4,1,0.6c0.8,0.4,1.3,0.7,1.6,1c0.3,0.3,0.4,0.7,0.4,1.2
		c0,0.7-0.2,1.2-0.6,1.6c-0.4,0.4-0.9,0.6-1.6,0.6c-0.4,0-0.9-0.1-1.4-0.3c-0.2-0.1-0.3-0.1-0.4-0.1c-0.1,0-0.2,0.1-0.3,0.3
		l-0.1,0.1h-0.3h0v-2.4h0.4c0.1,0.6,0.3,1,0.7,1.4c0.4,0.3,0.8,0.5,1.3,0.5c0.3,0,0.5-0.1,0.7-0.3c0.2-0.2,0.3-0.4,0.3-0.7
		c0-0.2-0.1-0.5-0.3-0.6c-0.2-0.2-0.6-0.4-1.1-0.6c-0.7-0.3-1.2-0.7-1.5-1c-0.3-0.3-0.4-0.7-0.4-1.2c0-0.6,0.2-1.2,0.6-1.5
		c0.4-0.4,0.9-0.6,1.6-0.6c0.3,0,0.8,0.1,1.2,0.3c0.1,0.1,0.3,0.1,0.4,0c0.1,0,0.2-0.1,0.3-0.2l0,0h0.3v2.1H198.6z M183.4,22.5v-3.7
		c0-0.4,0-0.7-0.1-0.9c-0.1-0.1-0.3-0.2-0.6-0.2v-0.3h1.3h1.3v1.1c0.2-0.3,0.4-0.5,0.6-0.7c0.4-0.4,0.9-0.5,1.4-0.5
		c0.6,0,1,0.2,1.4,0.5c0.2,0.2,0.4,0.5,0.5,0.8c0.2-0.3,0.5-0.5,0.7-0.8c0.4-0.3,0.9-0.5,1.3-0.5c0.6,0,1,0.2,1.4,0.6
		c0.4,0.4,0.5,0.9,0.5,1.5v3.3c0,0.4,0,0.7,0.1,0.9c0.1,0.1,0.3,0.2,0.6,0.2v0.3h-1.7h-1.7v-0.3c0.3,0,0.5-0.1,0.6-0.2
		c0.1-0.1,0.1-0.4,0.1-0.9v-3c0-0.5-0.1-0.9-0.2-1.1c-0.1-0.2-0.3-0.3-0.6-0.3c-0.2,0-0.5,0.1-0.7,0.3c-0.2,0.1-0.3,0.3-0.5,0.5v3.6
		c0,0.4,0,0.7,0.1,0.9c0.1,0.1,0.3,0.2,0.6,0.2v0.3h-1.7h-1.7v-0.3c0.3,0,0.5-0.1,0.6-0.2c0.1-0.1,0.1-0.4,0.1-0.9v-3
		c0-0.5-0.1-0.9-0.2-1.1c-0.1-0.2-0.3-0.3-0.6-0.3c-0.2,0-0.5,0.1-0.8,0.3c-0.2,0.1-0.3,0.3-0.5,0.5v3.6c0,0.4,0,0.7,0.1,0.9
		c0.1,0.1,0.3,0.2,0.6,0.2v0.3h-1.7h-1.7v-0.3c0.3,0,0.5-0.1,0.6-0.2C183.4,23.2,183.4,22.9,183.4,22.5z M180.4,19.9L180.4,19.9
		v-0.1c0-0.8-0.1-1.4-0.2-1.7c-0.1-0.3-0.4-0.5-0.7-0.5c-0.3,0-0.6,0.2-0.7,0.5c-0.2,0.3-0.3,0.8-0.3,1.5v0.3H180.4z M179.5,24.1
		c-0.9,0-1.6-0.3-2.1-0.9c-0.5-0.6-0.8-1.4-0.8-2.5c0-1,0.3-1.9,0.8-2.5c0.5-0.7,1.2-1,2.1-1c0.9,0,1.6,0.3,2,0.9
		c0.4,0.5,0.6,1.3,0.6,2.3h-3.5c0.1,0.8,0.2,1.4,0.4,1.8c0.3,0.6,0.8,0.8,1.4,0.8c0.3,0,0.5-0.1,0.8-0.2c0.2-0.2,0.5-0.4,0.7-0.7
		l0.3,0.2c-0.3,0.6-0.7,1-1.2,1.3C180.6,24,180,24.1,179.5,24.1z M172.6,22.5V18h-0.7v-0.4c0.5-0.5,0.9-0.9,1.3-1.3
		c0.3-0.4,0.7-0.8,1.1-1.4h0.3v2.4h1.3V18h-1.3V22c0,0.4,0,0.7,0.1,0.8c0.1,0.1,0.2,0.2,0.4,0.2c0.1,0,0.3-0.1,0.4-0.2
		c0.1-0.1,0.3-0.3,0.4-0.5l0.3,0.1c-0.2,0.5-0.5,0.9-0.8,1.2c-0.4,0.3-0.8,0.4-1.2,0.4c-0.5,0-0.9-0.1-1.2-0.4
		C172.7,23.4,172.6,23,172.6,22.5z M170.5,19.3c-0.1-0.5-0.4-0.9-0.7-1.2c-0.3-0.3-0.7-0.4-1.1-0.4c-0.3,0-0.5,0.1-0.7,0.2
		c-0.2,0.2-0.3,0.4-0.3,0.6c0,0.2,0.1,0.4,0.3,0.6c0.2,0.2,0.5,0.4,1,0.6c0.8,0.4,1.3,0.7,1.6,1c0.3,0.3,0.4,0.7,0.4,1.2
		c0,0.7-0.2,1.2-0.6,1.6c-0.4,0.4-0.9,0.6-1.6,0.6c-0.4,0-0.9-0.1-1.4-0.3c-0.2-0.1-0.3-0.1-0.4-0.1c-0.1,0-0.2,0.1-0.3,0.3
		l-0.1,0.1h-0.3h0v-2.4h0.4c0.1,0.6,0.3,1,0.7,1.4c0.4,0.3,0.8,0.5,1.3,0.5c0.3,0,0.5-0.1,0.7-0.3c0.2-0.2,0.3-0.4,0.3-0.7
		c0-0.2-0.1-0.5-0.3-0.6c-0.2-0.2-0.6-0.4-1.1-0.6c-0.7-0.3-1.2-0.7-1.5-1c-0.3-0.3-0.4-0.7-0.4-1.2c0-0.6,0.2-1.2,0.6-1.5
		c0.4-0.4,0.9-0.6,1.6-0.6c0.3,0,0.8,0.1,1.2,0.3c0.1,0.1,0.3,0.1,0.4,0c0.1,0,0.2-0.1,0.3-0.2l0,0h0.3v2.1H170.5z M165,18.4
		l-2.5,6.6c-0.2,0.7-0.5,1.1-0.8,1.4c-0.3,0.3-0.7,0.4-1.2,0.4c-0.4,0-0.7-0.1-0.9-0.3c-0.2-0.2-0.4-0.5-0.4-0.8
		c0-0.3,0.1-0.5,0.3-0.7c0.2-0.2,0.4-0.3,0.7-0.3c0.2,0,0.4,0.1,0.6,0.2c0.2,0.1,0.2,0.3,0.2,0.5c0,0,0,0.1,0,0.2c0,0.1,0,0.2,0,0.3
		c0,0.1,0.1,0.1,0.2,0.1c0.2,0,0.3-0.1,0.4-0.2c0.1-0.1,0.3-0.4,0.4-0.7l0.4-1v0l-2.3-5.6c-0.1-0.3-0.2-0.5-0.3-0.6
		c-0.1-0.1-0.2-0.2-0.4-0.2v-0.3h1.8h1.8v0.3c-0.4,0-0.6,0.1-0.7,0.2c-0.1,0.1,0,0.4,0.2,0.8l1.1,2.8h0l0.8-2.2
		c0.3-0.7,0.3-1.1,0.3-1.3c-0.1-0.2-0.3-0.3-0.8-0.4v-0.3h1.1h1.1v0.3c-0.2,0-0.3,0.1-0.4,0.2C165.2,17.9,165.1,18.1,165,18.4z
		 M157.7,17.1c-0.2-0.8-0.6-1.4-1.1-1.9c-0.5-0.5-1-0.7-1.6-0.7c-0.5,0-0.8,0.1-1.1,0.4c-0.3,0.3-0.4,0.6-0.4,1c0,0.4,0.1,0.7,0.4,1
		c0.3,0.3,0.8,0.6,1.6,0.9c1.1,0.5,1.8,0.9,2.3,1.5c0.5,0.5,0.7,1.1,0.7,1.8c0,1-0.3,1.7-0.9,2.3c-0.6,0.6-1.5,0.8-2.5,0.8
		c-0.6,0-1.3-0.1-2-0.4c-0.2-0.1-0.4-0.1-0.5-0.1c-0.1,0-0.2,0.2-0.2,0.4l0,0.1h-0.4h0v-3.5h0.4c0.2,0.9,0.5,1.7,1,2.2
		c0.5,0.6,1.1,0.8,1.9,0.8c0.5,0,1-0.2,1.3-0.5c0.3-0.3,0.5-0.7,0.5-1.2c0-0.4-0.2-0.7-0.5-1c-0.3-0.3-0.9-0.6-1.7-1
		c-1-0.4-1.7-0.9-2.1-1.4c-0.4-0.5-0.6-1.1-0.6-1.8c0-0.9,0.3-1.6,0.8-2.1c0.6-0.5,1.3-0.8,2.3-0.8c0.5,0,1.1,0.1,1.7,0.4
		c0.3,0.1,0.5,0.1,0.6,0.1c0.1,0,0.2-0.2,0.3-0.4l0-0.1h0.4v3.1H157.7z M142.7,22.5v-3.7c0-0.4,0-0.7-0.1-0.9
		c-0.1-0.1-0.3-0.2-0.6-0.2v-0.3h1.3h1.3v1.2c0.2-0.3,0.4-0.5,0.6-0.7c0.4-0.4,0.8-0.6,1.3-0.6c0.4,0,0.6,0.1,0.8,0.3
		c0.2,0.2,0.3,0.5,0.3,0.8c0,0.3-0.1,0.5-0.2,0.7c-0.2,0.2-0.4,0.3-0.7,0.3c-0.2,0-0.3,0-0.4-0.1c-0.1-0.1-0.2-0.2-0.4-0.4
		c-0.1-0.1-0.2-0.2-0.3-0.3c-0.1-0.1-0.1-0.1-0.2-0.1c-0.2,0-0.3,0.1-0.5,0.3c-0.1,0.2-0.2,0.3-0.3,0.5c0,0.2-0.1,0.4-0.1,0.7v2.6
		c0,0.4,0.1,0.7,0.2,0.8c0.1,0.1,0.4,0.2,0.8,0.3v0.3h-1.9h-1.9v-0.3c0.3,0,0.5-0.1,0.6-0.2C142.6,23.2,142.7,22.9,142.7,22.5z
		 M139.5,19.9L139.5,19.9v-0.1c0-0.8-0.1-1.4-0.2-1.7c-0.1-0.3-0.4-0.5-0.7-0.5c-0.3,0-0.6,0.2-0.7,0.5c-0.2,0.3-0.3,0.8-0.3,1.5
		v0.3H139.5z M138.6,24.1c-0.9,0-1.6-0.3-2.1-0.9c-0.5-0.6-0.8-1.4-0.8-2.5c0-1,0.3-1.9,0.8-2.5c0.5-0.7,1.2-1,2.1-1
		c0.9,0,1.6,0.3,2,0.9c0.4,0.5,0.6,1.3,0.6,2.3h-3.5c0.1,0.8,0.2,1.4,0.4,1.8c0.3,0.6,0.8,0.8,1.4,0.8c0.3,0,0.5-0.1,0.8-0.2
		c0.2-0.2,0.5-0.4,0.7-0.7l0.3,0.2c-0.3,0.6-0.7,1-1.2,1.3C139.6,24,139.1,24.1,138.6,24.1z M128.5,22.5v-6.8c0-0.4,0-0.7-0.1-0.9
		c-0.1-0.1-0.3-0.2-0.6-0.2v-0.3h1.3h1.3v4.1c0.2-0.3,0.3-0.5,0.6-0.7c0.4-0.4,0.9-0.5,1.4-0.5c0.6,0,1,0.2,1.4,0.6
		c0.4,0.4,0.5,0.9,0.5,1.4v3.3c0,0.4,0,0.7,0.1,0.9c0.1,0.1,0.3,0.2,0.5,0.2v0.3h-1.7h-1.7v-0.3c0.3,0,0.5-0.1,0.6-0.2
		c0.1-0.1,0.1-0.4,0.1-0.9v-2.9c0-0.6-0.1-1-0.2-1.2c-0.1-0.2-0.3-0.3-0.6-0.3c-0.2,0-0.5,0.1-0.7,0.3c-0.2,0.1-0.3,0.3-0.4,0.5v3.6
		c0,0.4,0,0.7,0.1,0.9c0.1,0.1,0.3,0.2,0.6,0.2v0.3h-1.7h-1.7v-0.3c0.3,0,0.5-0.1,0.6-0.2C128.4,23.2,128.5,22.9,128.5,22.5z
		 M123.8,22.5V18h-0.7v-0.4c0.5-0.5,0.9-0.9,1.3-1.3c0.3-0.4,0.7-0.8,1.1-1.4h0.3v2.4h1.3V18h-1.3V22c0,0.4,0,0.7,0.1,0.8
		c0.1,0.1,0.2,0.2,0.4,0.2c0.1,0,0.3-0.1,0.4-0.2c0.1-0.1,0.3-0.3,0.4-0.5l0.3,0.1c-0.2,0.5-0.5,0.9-0.8,1.2
		c-0.4,0.3-0.8,0.4-1.2,0.4c-0.5,0-0.9-0.1-1.2-0.4C124,23.4,123.8,23,123.8,22.5z M119.9,22.5v-2.1l-0.2,0.1
		c-0.5,0.2-0.9,0.4-1.2,0.7c-0.3,0.3-0.4,0.6-0.4,1c0,0.3,0.1,0.5,0.2,0.7c0.1,0.2,0.3,0.3,0.5,0.3c0.2,0,0.4-0.1,0.5-0.2
		C119.6,22.8,119.7,22.7,119.9,22.5z M117.7,24.1c-0.4,0-0.8-0.1-1.1-0.4c-0.3-0.3-0.4-0.7-0.4-1.1c0-0.5,0.2-0.9,0.6-1.3
		c0.4-0.4,1-0.7,1.8-0.9l1.4-0.4v-1c0-0.5-0.1-0.8-0.3-1c-0.2-0.2-0.5-0.3-0.9-0.3c-0.3,0-0.6,0.1-0.7,0.3c-0.2,0.2-0.1,0.4,0,0.5
		c0.3,0.3,0.4,0.7,0.2,1c-0.1,0.3-0.4,0.5-0.9,0.5c-0.3,0-0.5-0.1-0.7-0.2c-0.2-0.2-0.2-0.4-0.2-0.7c0-0.5,0.2-0.9,0.7-1.3
		c0.5-0.3,1.1-0.5,1.9-0.5c0.9,0,1.6,0.2,2.1,0.5c0.5,0.4,0.7,0.9,0.7,1.5v3.6c0,0.2,0,0.3,0.1,0.3c0,0.1,0.1,0.1,0.2,0.1
		c0.1,0,0.1,0,0.1,0c0,0,0.1-0.1,0.2-0.2l0.2,0.3c-0.2,0.2-0.4,0.4-0.7,0.6c-0.3,0.2-0.6,0.2-0.8,0.2c-0.4,0-0.7-0.1-0.9-0.3
		c-0.1-0.1-0.2-0.4-0.3-0.6c-0.3,0.3-0.5,0.5-0.8,0.6C118.7,24,118.2,24.1,117.7,24.1z M113.8,19.9L113.8,19.9v-0.1
		c0-0.8-0.1-1.4-0.2-1.7c-0.1-0.3-0.4-0.5-0.7-0.5c-0.3,0-0.6,0.2-0.7,0.5c-0.2,0.3-0.3,0.8-0.3,1.5v0.3H113.8z M112.8,24.1
		c-0.9,0-1.6-0.3-2.1-0.9c-0.5-0.6-0.8-1.4-0.8-2.5c0-1,0.3-1.9,0.8-2.5c0.5-0.7,1.2-1,2.1-1c0.9,0,1.6,0.3,2,0.9
		c0.4,0.5,0.6,1.3,0.6,2.3h-3.5c0.1,0.8,0.2,1.4,0.4,1.8c0.3,0.6,0.8,0.8,1.4,0.8c0.3,0,0.5-0.1,0.8-0.2c0.2-0.2,0.5-0.4,0.7-0.7
		l0.3,0.2c-0.3,0.6-0.7,1-1.2,1.3C113.9,24,113.4,24.1,112.8,24.1z M99.8,24.2l-3-8.5c-0.1-0.4-0.3-0.7-0.4-0.9
		c-0.1-0.1-0.3-0.2-0.6-0.2v-0.4h2.1h2v0.4c-0.5,0-0.7,0.1-0.8,0.2C99,15,99,15.3,99.1,15.7l1.7,5.2v0l1.6-4.5l-0.2-0.7
		c-0.1-0.4-0.3-0.7-0.5-0.9c-0.2-0.1-0.4-0.2-0.8-0.2v-0.4h2.2h2.2v0.4c-0.5,0-0.8,0.1-0.9,0.2c-0.1,0.1-0.1,0.4,0,0.9l1.6,4.9l0,0
		l1.4-4.3c0.2-0.7,0.3-1.1,0.2-1.4c-0.1-0.2-0.4-0.3-0.9-0.3v-0.4h1.3h1.3v0.4c-0.3,0-0.5,0.1-0.6,0.2c-0.1,0.1-0.3,0.4-0.4,0.9
		l-2.8,8.5h-0.2h-0.2l-2.4-7l-2.5,7H100H99.8z M89.1,22.5v-2.1l-0.2,0.1c-0.5,0.2-0.9,0.4-1.2,0.7c-0.3,0.3-0.4,0.6-0.4,1
		c0,0.3,0.1,0.5,0.2,0.7c0.1,0.2,0.3,0.3,0.5,0.3c0.2,0,0.4-0.1,0.5-0.2C88.8,22.8,88.9,22.7,89.1,22.5z M86.9,24.1
		c-0.4,0-0.8-0.1-1.1-0.4c-0.3-0.3-0.4-0.7-0.4-1.1c0-0.5,0.2-0.9,0.6-1.3c0.4-0.4,1-0.7,1.8-0.9l1.4-0.4v-1c0-0.5-0.1-0.8-0.3-1
		c-0.2-0.2-0.5-0.3-0.9-0.3c-0.3,0-0.6,0.1-0.7,0.3c-0.2,0.2-0.1,0.4,0,0.5c0.3,0.3,0.4,0.7,0.2,1c-0.1,0.3-0.4,0.5-0.9,0.5
		c-0.3,0-0.5-0.1-0.7-0.2c-0.2-0.2-0.2-0.4-0.2-0.7c0-0.5,0.2-0.9,0.7-1.3c0.5-0.3,1.1-0.5,1.9-0.5c0.9,0,1.6,0.2,2.1,0.5
		c0.5,0.4,0.7,0.9,0.7,1.5v3.6c0,0.2,0,0.3,0.1,0.3c0,0.1,0.1,0.1,0.2,0.1c0.1,0,0.1,0,0.1,0c0,0,0.1-0.1,0.2-0.2l0.2,0.3
		c-0.2,0.2-0.4,0.4-0.7,0.6c-0.3,0.2-0.6,0.2-0.8,0.2c-0.4,0-0.7-0.1-0.9-0.3c-0.1-0.1-0.2-0.4-0.3-0.6c-0.3,0.3-0.5,0.5-0.8,0.6
		C87.9,24,87.4,24.1,86.9,24.1z M78.2,22.5v-3.7c0-0.4,0-0.7-0.1-0.9c-0.1-0.1-0.3-0.2-0.6-0.2v-0.3h1.3h1.3v1.1
		c0.2-0.3,0.4-0.5,0.6-0.7c0.4-0.4,0.9-0.5,1.4-0.5c0.6,0,1,0.2,1.4,0.6c0.4,0.4,0.5,0.9,0.5,1.4v3.3c0,0.4,0,0.7,0.1,0.9
		c0.1,0.1,0.3,0.2,0.5,0.2v0.3h-1.7h-1.7v-0.3c0.3,0,0.5-0.1,0.6-0.2c0.1-0.1,0.1-0.4,0.1-0.9v-2.9c0-0.6-0.1-1-0.2-1.2
		c-0.1-0.2-0.3-0.3-0.6-0.3c-0.2,0-0.5,0.1-0.7,0.3c-0.2,0.1-0.3,0.3-0.4,0.5v3.6c0,0.4,0,0.7,0.1,0.9c0.1,0.1,0.3,0.2,0.6,0.2v0.3
		h-1.7h-1.7v-0.3c0.3,0,0.5-0.1,0.6-0.2C78.2,23.2,78.2,22.9,78.2,22.5z M70.4,22.5v-6.8c0-0.4,0-0.7-0.1-0.9
		c-0.1-0.1-0.3-0.2-0.6-0.2v-0.3H71h1.3v4.1c0.2-0.3,0.3-0.5,0.6-0.7c0.4-0.4,0.9-0.5,1.4-0.5c0.6,0,1,0.2,1.4,0.6
		c0.4,0.4,0.5,0.9,0.5,1.4v3.3c0,0.4,0,0.7,0.1,0.9c0.1,0.1,0.3,0.2,0.5,0.2v0.3h-1.7h-1.7v-0.3c0.3,0,0.5-0.1,0.6-0.2
		c0.1-0.1,0.1-0.4,0.1-0.9v-2.9c0-0.6-0.1-1-0.2-1.2c-0.1-0.2-0.3-0.3-0.6-0.3c-0.2,0-0.5,0.1-0.7,0.3c-0.2,0.1-0.3,0.3-0.4,0.5v3.6
		c0,0.4,0,0.7,0.1,0.9c0.1,0.1,0.3,0.2,0.6,0.2v0.3h-1.7h-1.7v-0.3c0.3,0,0.5-0.1,0.6-0.2C70.3,23.2,70.4,22.9,70.4,22.5z
		 M68.4,19.3c-0.1-0.5-0.4-0.9-0.7-1.2c-0.3-0.3-0.7-0.4-1.1-0.4c-0.3,0-0.5,0.1-0.7,0.2c-0.2,0.2-0.3,0.4-0.3,0.6
		c0,0.2,0.1,0.4,0.3,0.6c0.2,0.2,0.5,0.4,1,0.6c0.8,0.4,1.3,0.7,1.6,1c0.3,0.3,0.4,0.7,0.4,1.2c0,0.7-0.2,1.2-0.6,1.6
		c-0.4,0.4-0.9,0.6-1.6,0.6c-0.4,0-0.9-0.1-1.4-0.3c-0.2-0.1-0.3-0.1-0.4-0.1c-0.1,0-0.2,0.1-0.3,0.3l-0.1,0.1h-0.3h0v-2.4h0.4
		c0.1,0.6,0.3,1,0.7,1.4c0.4,0.3,0.8,0.5,1.3,0.5c0.3,0,0.5-0.1,0.7-0.3c0.2-0.2,0.3-0.4,0.3-0.7c0-0.2-0.1-0.5-0.3-0.6
		c-0.2-0.2-0.6-0.4-1.1-0.6c-0.7-0.3-1.2-0.7-1.5-1c-0.3-0.3-0.4-0.7-0.4-1.2c0-0.6,0.2-1.2,0.6-1.5c0.4-0.4,0.9-0.6,1.6-0.6
		c0.3,0,0.8,0.1,1.2,0.3c0.1,0.1,0.3,0.1,0.4,0c0.1,0,0.2-0.1,0.3-0.2l0,0h0.3v2.1H68.4z M62,14.1c0.3,0,0.6,0.1,0.8,0.3
		c0.2,0.2,0.3,0.5,0.3,0.8c0,0.3-0.1,0.6-0.3,0.8c-0.2,0.2-0.5,0.3-0.8,0.3c-0.3,0-0.6-0.1-0.8-0.3c-0.2-0.2-0.3-0.5-0.3-0.8
		c0-0.3,0.1-0.6,0.3-0.8C61.4,14.2,61.7,14.1,62,14.1z M61,22.5v-3.7c0-0.4,0-0.7-0.1-0.9c-0.1-0.1-0.3-0.2-0.6-0.2v-0.3h1.3H63v5.1
		c0,0.4,0,0.7,0.1,0.9c0.1,0.1,0.3,0.2,0.6,0.2v0.3H62h-1.7v-0.3c0.3,0,0.5-0.1,0.6-0.2C61,23.2,61,22.9,61,22.5z M55,22.5v-3.7
		c0-0.4,0-0.7-0.1-0.9c-0.1-0.1-0.3-0.2-0.6-0.2v-0.3h1.3h1.3v1.2c0.2-0.3,0.4-0.5,0.6-0.7c0.4-0.4,0.8-0.6,1.3-0.6
		c0.4,0,0.6,0.1,0.8,0.3c0.2,0.2,0.3,0.5,0.3,0.8c0,0.3-0.1,0.5-0.2,0.7c-0.2,0.2-0.4,0.3-0.7,0.3c-0.2,0-0.3,0-0.4-0.1
		c-0.1-0.1-0.2-0.2-0.4-0.4c-0.1-0.1-0.2-0.2-0.3-0.3c-0.1-0.1-0.1-0.1-0.2-0.1c-0.2,0-0.3,0.1-0.5,0.3C57.1,18.9,57,19,57,19.2
		c0,0.2-0.1,0.4-0.1,0.7v2.6c0,0.4,0.1,0.7,0.2,0.8c0.1,0.1,0.4,0.2,0.8,0.3v0.3h-1.9h-1.9v-0.3c0.3,0,0.5-0.1,0.6-0.2
		C54.9,23.2,55,22.9,55,22.5z M44.6,22.5v-6.8c0-0.4-0.1-0.7-0.2-0.8c-0.2-0.1-0.5-0.2-1-0.3v-0.4h2.4h2.4v0.4c-0.5,0-0.8,0.1-1,0.3
		c-0.2,0.1-0.2,0.4-0.2,0.8V19l2.7-2.7c0.6-0.6,0.9-1.1,0.9-1.3c0-0.2-0.4-0.4-1.2-0.4v-0.4h2h2v0.4c-0.5,0-0.9,0.1-1.3,0.3
		c-0.4,0.2-0.7,0.4-1.1,0.8l-2.2,2.2l3.6,4.6c0.4,0.4,0.6,0.7,0.8,0.9c0.2,0.1,0.4,0.2,0.6,0.2v0.4h-2.4H49v-0.4
		c0.6,0,0.9-0.1,1-0.2c0.1-0.1,0-0.3-0.2-0.6l-2.6-3.5l-0.4,0.4v2.7c0,0.4,0.1,0.7,0.2,0.8c0.2,0.1,0.5,0.2,1,0.3v0.4h-2.4h-2.4
		v-0.4c0.5,0,0.8-0.1,1-0.3C44.5,23.2,44.6,22.9,44.6,22.5z"/>
	<path id="XMLID_78_" class="st1" d="M32.1,35.3l0.4-0.1c0,0.4,0.2,0.6,0.5,0.6c0.1,0,0.2,0,0.3-0.1c0.1-0.1,0.1-0.2,0.1-0.3
		c0-0.1,0-0.1,0-0.2c0-0.1-0.1-0.1-0.1-0.1c-0.1,0-0.2-0.1-0.4-0.2c-0.2-0.1-0.3-0.1-0.4-0.2c-0.1-0.1-0.2-0.2-0.2-0.3
		c-0.1-0.1-0.1-0.3-0.1-0.4c0-0.2,0-0.3,0.1-0.5c0.1-0.1,0.2-0.2,0.3-0.3c0.1-0.1,0.3-0.1,0.4-0.1c0.3,0,0.5,0.1,0.6,0.2
		c0.1,0.2,0.2,0.4,0.2,0.7l-0.4,0c0-0.2-0.1-0.3-0.1-0.4c-0.1-0.1-0.2-0.1-0.3-0.1c-0.1,0-0.2,0-0.3,0.1c-0.1,0.1-0.1,0.1-0.1,0.2
		c0,0.1,0,0.2,0.1,0.2c0.1,0.1,0.2,0.1,0.4,0.2c0.2,0.1,0.4,0.2,0.5,0.2c0.1,0.1,0.2,0.2,0.2,0.3c0.1,0.1,0.1,0.3,0.1,0.5
		c0,0.3-0.1,0.5-0.2,0.7c-0.1,0.2-0.4,0.3-0.7,0.3C32.5,36.4,32.2,36,32.1,35.3 M30.1,36.3v-3.2h0.4l0.9,2.1v-2.1h0.4v3.2h-0.4
		l-0.9-2.1v2.1H30.1z M28.1,34.7c0,0.4,0.1,0.6,0.2,0.8c0.1,0.2,0.3,0.3,0.4,0.3c0.2,0,0.3-0.1,0.4-0.3c0.1-0.2,0.2-0.5,0.2-0.8
		c0-0.4-0.1-0.6-0.2-0.8c-0.1-0.2-0.3-0.3-0.4-0.3c-0.2,0-0.3,0.1-0.4,0.3C28.1,34.1,28.1,34.4,28.1,34.7z M27.6,34.7
		c0-0.4,0-0.7,0.1-0.9c0.1-0.2,0.2-0.4,0.4-0.5c0.1-0.1,0.3-0.2,0.5-0.2c0.3,0,0.6,0.1,0.8,0.4c0.2,0.3,0.3,0.7,0.3,1.2
		c0,0.5-0.1,0.9-0.3,1.2c-0.2,0.3-0.4,0.4-0.7,0.4c-0.3,0-0.6-0.1-0.7-0.4C27.7,35.7,27.6,35.3,27.6,34.7z M26.9,36.3v-3.2h0.4v3.2
		H26.9z M25.5,36.3v-2.6h-0.6v-0.5h1.7v0.5h-0.6v2.6H25.5z M22.8,33.1h0.4v1.7c0,0.3,0,0.4,0,0.5c0,0.1,0.1,0.2,0.1,0.3
		c0.1,0.1,0.2,0.1,0.3,0.1c0.1,0,0.2,0,0.2-0.1c0.1-0.1,0.1-0.1,0.1-0.2c0-0.1,0-0.3,0-0.6v-1.8h0.4v1.7c0,0.4,0,0.7-0.1,0.9
		c0,0.2-0.1,0.3-0.3,0.5c-0.1,0.1-0.3,0.2-0.5,0.2c-0.2,0-0.4,0-0.5-0.1c-0.1-0.1-0.2-0.2-0.3-0.4c-0.1-0.2-0.1-0.5-0.1-1V33.1z
		 M21,36.3v-3.1h0.4v2.6h1.1v0.5H21z M19,34.7c0,0.4,0.1,0.6,0.2,0.8c0.1,0.2,0.3,0.3,0.4,0.3c0.2,0,0.3-0.1,0.4-0.3
		c0.1-0.2,0.2-0.5,0.2-0.8c0-0.4-0.1-0.6-0.2-0.8c-0.1-0.2-0.3-0.3-0.4-0.3c-0.2,0-0.3,0.1-0.4,0.3C19.1,34.1,19,34.4,19,34.7z
		 M18.5,34.7c0-0.4,0-0.7,0.1-0.9c0.1-0.2,0.2-0.4,0.4-0.5c0.1-0.1,0.3-0.2,0.5-0.2c0.3,0,0.6,0.1,0.8,0.4c0.2,0.3,0.3,0.7,0.3,1.2
		c0,0.5-0.1,0.9-0.3,1.2c-0.2,0.3-0.4,0.4-0.7,0.4c-0.3,0-0.6-0.1-0.7-0.4C18.6,35.7,18.5,35.3,18.5,34.7z M16.5,35.3l0.4-0.1
		c0,0.4,0.2,0.6,0.5,0.6c0.1,0,0.2,0,0.3-0.1c0.1-0.1,0.1-0.2,0.1-0.3c0-0.1,0-0.1,0-0.2c0-0.1-0.1-0.1-0.1-0.1
		c-0.1,0-0.2-0.1-0.4-0.2c-0.2-0.1-0.3-0.1-0.4-0.2c-0.1-0.1-0.2-0.2-0.2-0.3c-0.1-0.1-0.1-0.3-0.1-0.4c0-0.2,0-0.3,0.1-0.5
		c0.1-0.1,0.2-0.2,0.3-0.3c0.1-0.1,0.3-0.1,0.4-0.1c0.3,0,0.5,0.1,0.6,0.2c0.1,0.2,0.2,0.4,0.2,0.7l-0.4,0c0-0.2-0.1-0.3-0.1-0.4
		c-0.1-0.1-0.2-0.1-0.3-0.1c-0.1,0-0.2,0-0.3,0.1C17,33.8,17,33.8,17,33.9c0,0.1,0,0.2,0.1,0.2c0.1,0.1,0.2,0.1,0.4,0.2
		c0.2,0.1,0.4,0.2,0.5,0.2c0.1,0.1,0.2,0.2,0.2,0.3c0.1,0.1,0.1,0.3,0.1,0.5c0,0.3-0.1,0.5-0.2,0.7c-0.1,0.2-0.4,0.3-0.7,0.3
		C16.9,36.4,16.6,36,16.5,35.3z M14.4,35.1v-0.5h0.9v1.3c-0.1,0.1-0.2,0.2-0.4,0.3c-0.2,0.1-0.3,0.1-0.5,0.1c-0.2,0-0.4-0.1-0.6-0.2
		c-0.2-0.1-0.3-0.3-0.4-0.6c-0.1-0.3-0.1-0.5-0.1-0.9c0-0.3,0-0.6,0.1-0.9c0.1-0.2,0.2-0.4,0.4-0.6c0.2-0.1,0.3-0.2,0.6-0.2
		c0.3,0,0.5,0.1,0.6,0.2c0.2,0.2,0.3,0.4,0.3,0.7l-0.4,0.1c0-0.2-0.1-0.3-0.2-0.4c-0.1-0.1-0.2-0.1-0.3-0.1c-0.2,0-0.3,0.1-0.5,0.3
		c-0.1,0.2-0.2,0.4-0.2,0.8c0,0.4,0.1,0.7,0.2,0.9c0.1,0.2,0.3,0.3,0.4,0.3c0.1,0,0.2,0,0.3-0.1c0.1,0,0.2-0.1,0.2-0.2v-0.4H14.4z
		 M11.2,36.3v-3.2h0.4l0.9,2.1v-2.1H13v3.2h-0.4l-0.9-2.1v2.1H11.2z M10.4,36.3v-3.2h0.4v3.2H10.4z M8.6,36.3v-3.1H9v2.6h1.1v0.5
		H8.6z M6.6,34.7c0,0.4,0.1,0.6,0.2,0.8c0.1,0.2,0.3,0.3,0.4,0.3c0.2,0,0.3-0.1,0.4-0.3c0.1-0.2,0.2-0.5,0.2-0.8
		c0-0.4-0.1-0.6-0.2-0.8c-0.1-0.2-0.3-0.3-0.4-0.3c-0.2,0-0.3,0.1-0.4,0.3C6.6,34.1,6.6,34.4,6.6,34.7z M6.1,34.7
		c0-0.4,0-0.7,0.1-0.9c0.1-0.2,0.2-0.4,0.4-0.5c0.2-0.1,0.3-0.2,0.5-0.2c0.3,0,0.6,0.1,0.8,0.4c0.2,0.3,0.3,0.7,0.3,1.2
		c0,0.5-0.1,0.9-0.3,1.2c-0.2,0.3-0.4,0.4-0.7,0.4c-0.3,0-0.6-0.1-0.7-0.4C6.2,35.7,6.1,35.3,6.1,34.7z M4.2,34.7
		c0,0.4,0.1,0.6,0.2,0.8c0.1,0.2,0.3,0.3,0.4,0.3c0.2,0,0.3-0.1,0.4-0.3c0.1-0.2,0.2-0.5,0.2-0.8c0-0.4-0.1-0.6-0.2-0.8
		c-0.1-0.2-0.3-0.3-0.4-0.3c-0.2,0-0.3,0.1-0.4,0.3C4.3,34.1,4.2,34.4,4.2,34.7z M3.8,34.7c0-0.4,0-0.7,0.1-0.9
		c0.1-0.2,0.2-0.4,0.4-0.5c0.2-0.1,0.3-0.2,0.5-0.2c0.3,0,0.6,0.1,0.8,0.4c0.2,0.3,0.3,0.7,0.3,1.2c0,0.5-0.1,0.9-0.3,1.2
		c-0.2,0.3-0.4,0.4-0.7,0.4c-0.3,0-0.6-0.1-0.7-0.4C3.9,35.7,3.8,35.3,3.8,34.7z M3,35.1l0.4,0.2c-0.1,0.4-0.2,0.6-0.3,0.8
		c-0.2,0.2-0.3,0.2-0.6,0.2c-0.3,0-0.5-0.1-0.7-0.4c-0.2-0.3-0.3-0.7-0.3-1.2c0-0.5,0.1-1,0.3-1.3c0.2-0.3,0.4-0.4,0.7-0.4
		c0.2,0,0.4,0.1,0.6,0.3c0.1,0.1,0.2,0.4,0.3,0.6L3,34.2c0-0.2-0.1-0.3-0.2-0.4c-0.1-0.1-0.2-0.1-0.3-0.1c-0.2,0-0.3,0.1-0.4,0.3
		C2.1,34,2,34.3,2,34.7c0,0.4,0,0.7,0.1,0.9c0.1,0.2,0.2,0.3,0.4,0.3c0.1,0,0.2-0.1,0.3-0.2C2.9,35.5,3,35.4,3,35.1z M16.4,31.2
		v-3.2h1.6v0.5h-1.2v0.7H18v0.5h-1.1v0.9h1.2v0.5H16.4z M15.1,31.2v-2.6h-0.6v-0.5h1.7v0.5h-0.6v2.6H15.1z M12.6,31.2v-3.2h1.6v0.5
		H13v0.7h1.1v0.5H13v0.9h1.2v0.5H12.6z M10.7,31.2v-3.1h0.4v2.6h1.1v0.5H10.7z M9.1,28.6v0.9h0.2c0.2,0,0.3,0,0.3,0
		c0.1,0,0.1-0.1,0.1-0.1c0-0.1,0.1-0.2,0.1-0.3c0-0.1,0-0.2-0.1-0.3c0-0.1-0.1-0.1-0.1-0.1c-0.1,0-0.2,0-0.4,0H9.1z M8.7,31.2v-3.2
		h0.7c0.3,0,0.4,0,0.5,0c0.1,0,0.2,0.2,0.3,0.3c0.1,0.2,0.1,0.4,0.1,0.6c0,0.2,0,0.4-0.1,0.6c-0.1,0.2-0.2,0.3-0.3,0.3
		C9.9,30,9.7,30,9.4,30H9.1v1.2H8.7z M6.2,31.2v-3.2h0.7l0.4,2.2l0.4-2.2h0.7v3.2H7.9v-2.5l-0.4,2.5H7l-0.4-2.5v2.5H6.2z M4.2,29.7
		c0,0.4,0.1,0.6,0.2,0.8c0.1,0.2,0.3,0.3,0.4,0.3c0.2,0,0.3-0.1,0.4-0.3c0.1-0.2,0.2-0.5,0.2-0.8c0-0.4-0.1-0.6-0.2-0.8
		c-0.1-0.2-0.3-0.3-0.4-0.3c-0.2,0-0.3,0.1-0.4,0.3C4.3,29,4.2,29.3,4.2,29.7z M3.8,29.7c0-0.4,0-0.7,0.1-0.9
		c0.1-0.2,0.2-0.4,0.4-0.5C4.4,28.1,4.6,28,4.8,28c0.3,0,0.6,0.1,0.8,0.4c0.2,0.3,0.3,0.7,0.3,1.2c0,0.5-0.1,0.9-0.3,1.2
		c-0.2,0.3-0.4,0.4-0.7,0.4c-0.3,0-0.6-0.1-0.7-0.4C3.9,30.6,3.8,30.2,3.8,29.7z M3,30.1l0.4,0.2c-0.1,0.4-0.2,0.6-0.3,0.8
		c-0.2,0.2-0.3,0.2-0.6,0.2c-0.3,0-0.5-0.1-0.7-0.4c-0.2-0.3-0.3-0.7-0.3-1.2c0-0.5,0.1-1,0.3-1.3C2.1,28.2,2.3,28,2.6,28
		c0.2,0,0.4,0.1,0.6,0.3c0.1,0.1,0.2,0.4,0.3,0.6L3,29.1c0-0.2-0.1-0.3-0.2-0.4c-0.1-0.1-0.2-0.1-0.3-0.1c-0.2,0-0.3,0.1-0.4,0.3
		C2.1,29,2,29.3,2,29.6c0,0.4,0,0.7,0.1,0.9c0.1,0.2,0.2,0.3,0.4,0.3c0.1,0,0.2-0.1,0.3-0.2C2.9,30.5,3,30.3,3,30.1z"/>
	<g id="XMLID_73_">
		<path id="XMLID_8_" class="st2" d="M1.2,25.1C1,16.2,9.3,12.3,18,8.6C29.3,5.1,40.3,5.1,51.1,7C39.2,4.8,6.6,8.9,9.6,25.1H1.2z"/>
		<path id="XMLID_7_" class="st2" d="M10,25.1C7.7,9.5,40.6,5.2,51.7,7.8c-11.6-1.1-37.3,2.7-33.2,17.4H10z"/>
		<path id="XMLID_6_" class="st2" d="M19.1,25.1C14.6,8.9,49.3,5.7,60.1,9.7c-14-3.9-40.1,3.8-32.9,15.4H19.1z"/>
		<path id="XMLID_5_" class="st2" d="M27.7,25.1C20.4,10.7,52.8,7.5,62.1,11c-12-2.6-34.9,3.2-25.9,14.1H27.7z"/>
	</g>
	<g id="XMLID_68_">
		<path id="XMLID_4_" class="st3" d="M75.7,26.1C75.9,35,67.6,39,58.9,42.6c-11.3,3.5-22.4,3.5-33.1,1.6
			c11.9,2.2,44.5-1.9,41.5-18.2H75.7z"/>
		<path id="XMLID_3_" class="st3" d="M66.9,26.1c2.3,15.6-30.6,20-41.7,17.4c11.6,1.1,37.3-2.7,33.2-17.4H66.9z"/>
		<path id="XMLID_2_" class="st3" d="M57.8,26.1c4.5,16.2-30.2,19.4-41,15.4c14,3.9,40.1-3.8,32.9-15.4H57.8z"/>
		<path id="XMLID_1_" class="st3" d="M49.2,26.1c7.3,14.4-25.1,17.7-34.4,14.1c12,2.6,34.9-3.2,25.9-14.1H49.2z"/>
	</g>
</g>
</svg>
