<?xml version="1.0" encoding="utf-8"?>
<!-- Generator: Adobe Illustrator 19.0.0, SVG Export Plug-In . SVG Version: 6.00 Build 0)  -->
<svg version="1.1" id="Layer_1" xmlns="http://www.w3.org/2000/svg" xmlns:xlink="http://www.w3.org/1999/xlink" x="0px" y="0px"
	 viewBox="0 0 400 200" style="enable-background:new 0 0 400 200;" xml:space="preserve">
<style type="text/css">
	.st0{fill:#010101;}
	.st1{font-family:'Constantia';}
	.st2{font-size:7.0081px;}
	.st3{fill:#ED1C24;}
	.st4{font-size:28.0322px;}
	.st5{fill:#70CDDD;}
	.st6{fill:#3A52A4;}
</style>
<g id="XMLID_2_">
	<text id="XMLID_3_" transform="matrix(1 0 0 1 15.7022 112.3779)"><tspan x="0" y="0" class="st0 st1 st2">COMPLETE</tspan><tspan x="0" y="8.4" class="st0 st1 st2">COOLING SOLUTIONS</tspan></text>
	<text id="XMLID_20_" transform="matrix(1 0 0 1 88.4112 98.3623)" class="st3 st1 st4">Krishna Weather Systems</text>
	<g id="XMLID_1_">
		<path id="XMLID_63_" class="st5" d="M120.3,103.6l-11.9-0.5c0,0,39.1,23.5-47.9,31.3l-36,2.8C24.5,137.1,172.5,134.3,120.3,103.6z
			"/>
		<path id="XMLID_69_" class="st5" d="M103.9,103.1L92,102.6c0,0,39.1,23.5-47.9,31.3l-36,2.8C8.1,136.6,156.2,133.8,103.9,103.1z"
			/>
		<path id="XMLID_64_" class="st5" d="M136.6,104.3l-11.9-0.5c0,0,39.1,23.5-47.9,31.3l-36,2.8C40.8,137.8,188.9,135,136.6,104.3z"
			/>
		<path id="XMLID_65_" class="st5" d="M152.5,104.7l-11.9-0.5c0,0,39.1,23.5-47.9,31.3l-36,2.8C56.7,138.2,204.7,135.4,152.5,104.7z
			"/>
	</g>
	<g id="XMLID_4_">
		<path id="XMLID_13_" class="st6" d="M15.3,102.1h12.3c0,0-41.6-21.5,47.8-33l37-4.3C112.4,64.8-40.2,74.1,15.3,102.1z"/>
		<path id="XMLID_12_" class="st6" d="M31.7,102.1H44c0,0-41.6-21.5,47.8-33l37-4.3C128.8,64.8-23.8,74.1,31.7,102.1z"/>
		<path id="XMLID_11_" class="st6" d="M48.6,102.1h12.3c0,0-41.6-21.5,47.8-33l37-4.3C145.7,64.8-6.9,74.1,48.6,102.1z"/>
		<path id="XMLID_10_" class="st6" d="M65.4,102.1h12.3c0,0-41.6-21.5,47.8-33l37-4.3C162.6,64.8,10,74.1,65.4,102.1z"/>
	</g>
</g>
</svg>
